<svg width="1977" height="708" viewBox="0 0 1977 708" fill="none" xmlns="http://www.w3.org/2000/svg">
<path d="M17.55 386V130.85H9L15.3 71H144L140.4 130.85H78.75V198.35H134.1L130.5 258.2H78.75V326.15H144L140.4 386H17.55ZM161.93 386L204.68 228.5L161.93 71H222.68L245.18 177.65L267.23 71H327.98L285.23 228.5L327.98 386H267.23L245.18 279.35L222.68 386H161.93ZM354.611 386V130.85H346.061L352.361 71H434.711C457.811 71 474.311 76.1 484.211 86.3C494.411 96.2 499.511 112.55 499.511 135.35V237.95C499.511 260.75 494.411 277.25 484.211 287.45C474.311 297.35 457.811 302.3 434.711 302.3H415.811V386H354.611ZM436.061 130.85H415.811V242.45H436.061C437.561 242.45 438.311 241.7 438.311 240.2V133.1C438.311 131.6 437.561 130.85 436.061 130.85ZM528.195 386.45V131.3H519.645L525.945 71.45H589.395V326.15H675.345L671.745 386H589.395V386.45H528.195ZM842.629 323.45C842.629 346.25 837.529 362.75 827.329 372.95C817.429 382.85 800.929 387.8 777.829 387.8H758.029C734.929 387.8 718.279 382.85 708.079 372.95C698.179 362.75 693.229 346.25 693.229 323.45V133.55C693.229 110.45 698.179 93.95 708.079 84.05C718.279 74.15 734.929 69.2 758.029 69.2H777.829C800.929 69.2 817.429 74.15 827.329 84.05C837.529 93.95 842.629 110.45 842.629 133.55V323.45ZM756.679 129.05C755.179 129.05 754.429 129.8 754.429 131.3V325.7C754.429 327.2 755.179 327.95 756.679 327.95H779.179C780.679 327.95 781.429 327.2 781.429 325.7V131.3C781.429 129.8 780.679 129.05 779.179 129.05H756.679ZM866.96 386V130.85H858.41L864.71 71H947.06C970.16 71 986.66 76.1 996.56 86.3C1006.76 96.2 1011.86 112.55 1011.86 135.35V237.95C1011.86 261.05 1006.91 277.55 997.01 287.45L1024.91 386H963.71L940.31 302.3H928.16V386H866.96ZM948.41 130.85H928.16V242.45H948.41C949.91 242.45 950.66 241.7 950.66 240.2V133.1C950.66 131.6 949.91 130.85 948.41 130.85ZM1040.84 386L1078.19 130.85H1068.74L1075.04 71H1179.89L1226.24 386H1165.49L1158.74 341H1108.34L1101.59 386H1040.84ZM1116.89 281.15H1150.19L1133.54 168.65L1116.89 281.15ZM1389.31 255.5V325.25C1389.31 348.05 1384.21 364.55 1374.01 374.75C1364.11 384.65 1347.61 389.6 1324.51 389.6H1304.71C1281.61 389.6 1264.96 384.65 1254.76 374.75C1244.86 364.55 1239.91 348.05 1239.91 325.25V131.75C1239.91 108.65 1244.86 92.15 1254.76 82.25C1264.96 72.35 1281.61 67.4 1304.71 67.4H1324.51C1347.61 67.4 1364.11 72.35 1374.01 82.25C1384.21 92.15 1389.31 108.65 1389.31 131.75V206L1328.11 199.25V129.5C1328.11 128 1327.36 127.25 1325.86 127.25H1303.36C1301.86 127.25 1301.11 128 1301.11 129.5V327.5C1301.11 329 1301.86 329.75 1303.36 329.75H1325.86C1327.36 329.75 1328.11 329 1328.11 327.5V255.5H1389.31ZM1556.74 323.45C1556.74 346.25 1551.64 362.75 1541.44 372.95C1531.54 382.85 1515.04 387.8 1491.94 387.8H1472.14C1449.04 387.8 1432.39 382.85 1422.19 372.95C1412.29 362.75 1407.34 346.25 1407.34 323.45V133.55C1407.34 110.45 1412.29 93.95 1422.19 84.05C1432.39 74.15 1449.04 69.2 1472.14 69.2H1491.94C1515.04 69.2 1531.54 74.15 1541.44 84.05C1551.64 93.95 1556.74 110.45 1556.74 133.55V323.45ZM1470.79 129.05C1469.29 129.05 1468.54 129.8 1468.54 131.3V325.7C1468.54 327.2 1469.29 327.95 1470.79 327.95H1493.29C1494.79 327.95 1495.54 327.2 1495.54 325.7V131.3C1495.54 129.8 1494.79 129.05 1493.29 129.05H1470.79ZM1583.32 386V130.85H1574.77L1581.07 71H1623.37L1667.92 70.55L1689.52 240.65L1711.57 71H1796.17V386H1734.97V197.9L1711.12 341H1668.37L1644.52 197.9V386H1583.32ZM1822.82 386V130.85H1814.27L1820.57 71H1902.92C1926.02 71 1942.52 76.1 1952.42 86.3C1962.62 96.2 1967.72 112.55 1967.72 135.35V237.95C1967.72 260.75 1962.62 277.25 1952.42 287.45C1942.52 297.35 1926.02 302.3 1902.92 302.3H1884.02V386H1822.82ZM1904.27 130.85H1884.02V242.45H1904.27C1905.77 242.45 1906.52 241.7 1906.52 240.2V133.1C1906.52 131.6 1905.77 130.85 1904.27 130.85Z" fill="#051755"/>
<path d="M131 597.5V636.25C131 648.917 128.167 658.083 122.5 663.75C117 669.25 107.833 672 95 672H84C71.1667 672 61.9167 669.25 56.25 663.75C50.75 658.083 48 648.917 48 636.25V528.75C48 515.917 50.75 506.75 56.25 501.25C61.9167 495.75 71.1667 493 84 493H95C107.833 493 117 495.75 122.5 501.25C128.167 506.75 131 515.917 131 528.75V570L97 566.25V527.5C97 526.667 96.5833 526.25 95.75 526.25H83.25C82.4167 526.25 82 526.667 82 527.5V637.5C82 638.333 82.4167 638.75 83.25 638.75H95.75C96.5833 638.75 97 638.333 97 637.5V597.5H131ZM145.768 670V528.25H141.018L144.518 495H179.768V670H145.768ZM204.346 487.5L214.846 464H242.596L253.096 487.5H233.096L228.846 477.75L224.346 487.5H204.346ZM194.596 670V528.25H189.846L193.346 495H264.846L262.846 528.25H228.596V565.75H259.346L257.346 599H228.596V636.75H264.846L262.846 670H194.596ZM274.674 670V528.25H269.924L273.424 495H308.674L337.174 590V495H371.174V670H337.174L308.674 575V670H274.674ZM464.252 597.5V636.25C464.252 648.917 461.419 658.083 455.752 663.75C450.252 669.25 441.085 672 428.252 672H417.252C404.419 672 395.169 669.25 389.502 663.75C384.002 658.083 381.252 648.917 381.252 636.25V528.75C381.252 515.917 384.002 506.75 389.502 501.25C395.169 495.75 404.419 493 417.252 493H428.252C441.085 493 450.252 495.75 455.752 501.25C461.419 506.75 464.252 515.917 464.252 528.75V570L430.252 566.25V527.5C430.252 526.667 429.835 526.25 429.002 526.25H416.502C415.669 526.25 415.252 526.667 415.252 527.5V637.5C415.252 638.333 415.669 638.75 416.502 638.75H429.002C429.835 638.75 430.252 638.333 430.252 637.5V597.5H464.252ZM479.02 670V528.25H474.27L477.77 495H513.02V670H479.02ZM523.098 670L543.848 528.25H538.598L542.098 495H600.348L626.098 670H592.348L588.598 645H560.598L556.848 670H523.098ZM565.348 611.75H583.848L574.598 549.25L565.348 611.75ZM768.807 634.25C768.807 646.917 765.973 656.083 760.307 661.75C754.807 667.25 745.64 670 732.807 670H685.807V528.25H681.057L684.557 495H732.807C745.64 495 754.807 497.75 760.307 503.25C765.973 508.75 768.807 517.917 768.807 530.75V634.25ZM733.557 636.75C734.39 636.75 734.807 636.333 734.807 635.5V529.5C734.807 528.667 734.39 528.25 733.557 528.25H719.807V636.75H733.557ZM778.713 670L799.463 528.25H794.213L797.713 495H855.963L881.713 670H847.963L844.213 645H816.213L812.463 670H778.713ZM820.963 611.75H839.463L830.213 549.25L820.963 611.75ZM1018.45 597.5V636.25C1018.45 648.917 1015.62 658.083 1009.95 663.75C1004.45 669.25 995.285 672 982.451 672H971.451C958.618 672 949.368 669.25 943.701 663.75C938.201 658.083 935.451 648.917 935.451 636.25V528.75C935.451 515.917 938.201 506.75 943.701 501.25C949.368 495.75 958.618 493 971.451 493H982.451C995.285 493 1004.45 495.75 1009.95 501.25C1015.62 506.75 1018.45 515.917 1018.45 528.75V570L984.451 566.25V527.5C984.451 526.667 984.035 526.25 983.201 526.25H970.701C969.868 526.25 969.451 526.667 969.451 527.5V637.5C969.451 638.333 969.868 638.75 970.701 638.75H983.201C984.035 638.75 984.451 638.333 984.451 637.5V597.5H1018.45ZM1111.47 635.25C1111.47 647.917 1108.64 657.083 1102.97 662.75C1097.47 668.25 1088.3 671 1075.47 671H1064.47C1051.64 671 1042.39 668.25 1036.72 662.75C1031.22 657.083 1028.47 647.917 1028.47 635.25V529.75C1028.47 516.917 1031.22 507.75 1036.72 502.25C1042.39 496.75 1051.64 494 1064.47 494H1075.47C1088.3 494 1097.47 496.75 1102.97 502.25C1108.64 507.75 1111.47 516.917 1111.47 529.75V635.25ZM1063.72 527.25C1062.89 527.25 1062.47 527.667 1062.47 528.5V636.5C1062.47 637.333 1062.89 637.75 1063.72 637.75H1076.22C1077.05 637.75 1077.47 637.333 1077.47 636.5V528.5C1077.47 527.667 1077.05 527.25 1076.22 527.25H1063.72ZM1126.24 670V528.25H1121.49L1124.99 495H1148.49L1173.24 494.75L1185.24 589.25L1197.49 495H1244.49V670H1210.49V565.5L1197.24 645H1173.49L1160.24 565.5V670H1126.24ZM1259.29 670V528.25H1254.54L1258.04 495H1303.79C1316.63 495 1325.79 497.833 1331.29 503.5C1336.96 509 1339.79 518.083 1339.79 530.75V587.75C1339.79 600.417 1336.96 609.583 1331.29 615.25C1325.79 620.75 1316.63 623.5 1303.79 623.5H1293.29V670H1259.29ZM1304.54 528.25H1293.29V590.25H1304.54C1305.38 590.25 1305.79 589.833 1305.79 589V529.5C1305.79 528.667 1305.38 528.25 1304.54 528.25ZM1438.76 635.25C1438.76 647.917 1435.92 657.083 1430.26 662.75C1424.76 668.25 1415.59 671 1402.76 671H1389.26C1376.42 671 1367.17 668.25 1361.51 662.75C1356.01 657.083 1353.26 647.917 1353.26 635.25V528.25H1348.51L1352.01 495H1387.26V636.5C1387.26 637.333 1387.67 637.75 1388.51 637.75H1403.51C1404.34 637.75 1404.76 637.333 1404.76 636.5V495H1438.76V635.25ZM1471.88 670V528.25H1448.63V495H1528.88V528.25H1505.88V670H1471.88ZM1528.96 670L1549.71 528.25H1544.46L1547.96 495H1606.21L1631.96 670H1598.21L1594.46 645H1566.46L1562.71 670H1528.96ZM1571.21 611.75H1589.71L1580.46 549.25L1571.21 611.75ZM1722.55 597.5V636.25C1722.55 648.917 1719.72 658.083 1714.05 663.75C1708.55 669.25 1699.39 672 1686.55 672H1675.55C1662.72 672 1653.47 669.25 1647.8 663.75C1642.3 658.083 1639.55 648.917 1639.55 636.25V528.75C1639.55 515.917 1642.3 506.75 1647.8 501.25C1653.47 495.75 1662.72 493 1675.55 493H1686.55C1699.39 493 1708.55 495.75 1714.05 501.25C1719.72 506.75 1722.55 515.917 1722.55 528.75V570L1688.55 566.25V527.5C1688.55 526.667 1688.14 526.25 1687.3 526.25H1674.8C1673.97 526.25 1673.55 526.667 1673.55 527.5V637.5C1673.55 638.333 1673.97 638.75 1674.8 638.75H1687.3C1688.14 638.75 1688.55 638.333 1688.55 637.5V597.5H1722.55ZM1688.55 669.75V674.25H1688.8C1691.14 674.25 1693.22 675 1695.05 676.5C1696.89 678.167 1697.8 680.167 1697.8 682.5V690.25C1697.8 692.083 1696.8 693.583 1694.8 694.75C1692.97 695.917 1690.64 696.5 1687.8 696.5H1667.05V683.75H1679.05V687.5H1685.8V682.5H1684.3C1679.14 682.5 1676.55 680.25 1676.55 675.75V669.75H1688.55ZM1732.57 670L1753.32 528.25H1748.07L1751.57 495H1809.82L1835.57 670H1801.82L1798.07 645H1770.07L1766.32 670H1732.57ZM1774.82 611.75H1793.32L1784.07 549.25L1774.82 611.75ZM1805.32 462V483.5C1803.49 486.333 1800.07 487.917 1795.07 488.25C1790.07 488.417 1785.4 487.333 1781.07 485C1777.4 483 1773.24 482.25 1768.57 482.75C1763.9 483.25 1760.65 485 1758.82 488V466.5C1760.82 463.833 1764.32 462.333 1769.32 462C1774.32 461.667 1778.9 462.667 1783.07 465C1786.9 467.167 1791.15 468 1795.82 467.5C1800.49 467 1803.65 465.167 1805.32 462ZM1928.61 635.25C1928.61 647.917 1925.77 657.083 1920.11 662.75C1914.61 668.25 1905.44 671 1892.61 671H1881.61C1868.77 671 1859.52 668.25 1853.86 662.75C1848.36 657.083 1845.61 647.917 1845.61 635.25V529.75C1845.61 516.917 1848.36 507.75 1853.86 502.25C1859.52 496.75 1868.77 494 1881.61 494H1892.61C1905.44 494 1914.61 496.75 1920.11 502.25C1925.77 507.75 1928.61 516.917 1928.61 529.75V635.25ZM1880.86 527.25C1880.02 527.25 1879.61 527.667 1879.61 528.5V636.5C1879.61 637.333 1880.02 637.75 1880.86 637.75H1893.36C1894.19 637.75 1894.61 637.333 1894.61 636.5V528.5C1894.61 527.667 1894.19 527.25 1893.36 527.25H1880.86Z" fill="#051755"/>
</svg>
